#!OML:ASF X:\für Bonn\!DataBase\2005_08_12_Daniel\c3d\Daniel.ASF
:FULLY-SPECIFIED
:DEGREES
111
root 2.64931 17.6299 17.5301 -5.45901 14.3066 0.711995
lowerback 6.91926 2.51384 2.95052
upperback 0.620238 3.40714 -6.39615
thorax -2.66942 1.66138 -8.71232
lowerneck 1.96672 -5.58174 -0.214635
upperneck 11.9627 -7.86459 4.01774
head 3.73986 -3.74584 1.14615
rclavicle 2.32205e-014 1.27222e-014
rhumerus 63.4926 -11.4923 -80.7373
rradius 11.8277
rwrist 41.9898
rhand 5.67882 5.66782
rfingers 7.12502
rthumb 31.0172 -21.7304
lclavicle 2.32205e-014 1.27222e-014
lhumerus -36.0373 42.9505 58.9513
lradius 16.8471
lwrist -42.7763
lhand -10.6267 -6.04896
lfingers 7.12502
lthumb 15.3801 23.359
rfemur 6.24955 15.5601 20.8777
rtibia 18.5086
rfoot -26.7702 -24.9919
rtoes -10.1548
lfemur -0.914916 -17.9167 -19.7808
ltibia 27.74
lfoot -21.0217 5.10082
ltoes -15.8455
112
root 2.64642 17.6308 17.526 -5.44238 14.3401 0.714587
lowerback 6.98389 2.53008 2.94888
upperback 0.593911 3.42752 -6.40304
thorax -2.72931 1.6688 -8.72609
lowerneck 1.9995 -5.6005 -0.240601
upperneck 12.0595 -7.89274 4.02083
head 3.77039 -3.7591 1.15082
rclavicle -8.38747e-014 -3.18055e-015
rhumerus 63.4692 -11.3641 -80.4094
rradius 11.7625
rwrist 41.9306
rhand 5.95668 5.52132
rfingers 7.12502
rthumb 31.282 -21.826
lclavicle -8.38747e-014 -3.18055e-015
lhumerus -36.0725 42.888 58.9451
lradius 16.7767
lwrist -42.7607
lhand -10.6293 -6.0218
lfingers 7.12502
lthumb 15.3776 23.3863
rfemur 6.20766 15.5029 20.8568
rtibia 18.5212
rfoot -26.763 -24.9564
rtoes -10.113
lfemur -0.97178 -17.9124 -19.7587
ltibia 27.7588
lfoot -21.0055 5.05827
ltoes -15.8451
113
root 2.64301 17.6313 17.5219 -5.4349 14.3757 0.713653
lowerback 7.0565 2.53749 2.93876
upperback 0.569845 3.43557 -6.40164
thorax -2.79445 1.66994 -8.72541
lowerneck 2.0205 -5.60832 -0.288809
upperneck 12.1728 -7.90833 4.03855
head 3.81064 -3.76609 1.16399
rclavicle -5.32991e-014 3.81667e-014
rhumerus 63.4098 -11.2277 -80.1221
rradius 11.7741
rwrist 41.917
rhand 6.21628 5.38668
rfingers 7.12502
rthumb 31.5294 -21.9125
lclavicle -5.32991e-014 3.81667e-014
lhumerus -36.1832 42.9278 58.8613
lradius 16.7291
lwrist -42.8361
lhand -10.636 -6.0083
lfingers 7.12502
lthumb 15.3712 23.4003
rfemur 6.17181 15.4456 20.8471
rtibia 18.5339
rfoot -26.7381 -24.9433
rtoes -10.1191
lfemur -1.02227 -17.9114 -19.7339
ltibia 27.7784
lfoot -20.9883 5.01626
ltoes -15.8463
114
root 2.6402 17.6317 17.5177 -5.42953 14.3996 0.703015
lowerback 7.12297 2.54543 2.93808
upperback 0.549788 3.4454 -6.39265
thorax -2.85157 1.67225 -8.7215
lowerneck 2.06356 -5.61147 -0.333288
upperneck 12.2603 -7.91423 4.0373
head 3.83607 -3.76966 1.17148
rclavicle 6.85434e-014 -7.63333e-014
rhumerus 63.2952 -11.0246 -79.688
rradius 11.8613
rwrist 41.7295
rhand 6.47243 5.26821
rfingers 7.12502
rthumb 31.7734 -21.9829
lclavicle 6.85434e-014 -7.63333e-014
lhumerus -36.2252 42.849 58.8775
lradius 16.6748
lwrist -42.7221
lhand -10.6601 -5.95223
lfingers 7.12502
lthumb 15.3479 23.4582
rfemur 6.14021 15.4101 20.8478
rtibia 18.5453
rfoot -26.7373 -24.9205
rtoes -10.0742
lfemur -1.0707 -17.8924 -19.694
ltibia 27.798
lfoot -20.9662 4.95139
ltoes -15.7484
115
root 2.6376 17.6317 17.5131 -5.42173 14.4344 0.702436
lowerback 7.19549 2.55144 2.9401
upperback 0.529333 3.45262 -6.39455
thorax -2.91212 1.67311 -8.73138
lowerneck 2.08843 -5.62249 -0.373401
upperneck 12.3813 -7.93366 4.0473
head 3.87778 -3.77842 1.18068
rclavicle 3.85021e-014 -2.38542e-014
rhumerus 63.179 -10.8867 -79.3886
rradius 11.9992
rwrist 41.7172
rhand 6.73975 5.2011
rfingers 7.12502
rthumb 32.0279 -21.9992
lclavicle 3.85021e-014 -2.38542e-014
lhumerus -36.2672 42.7502 58.8824
lradius 16.6229
lwrist -42.6232
lhand -10.668 -5.91817
lfingers 7.12502
lthumb 15.3403 23.4928
rfemur 6.10424 15.3667 20.8383
rtibia 18.558
rfoot -26.7305 -24.9142
rtoes -10.0711
lfemur -1.12178 -17.8966 -19.6737
ltibia 27.8162
lfoot -20.9464 4.91661
ltoes -15.7493
116
root 2.63476 17.6325 17.5094 -5.41319 14.4589 0.703002
lowerback 7.25609 2.55851 2.93965
upperback 0.518999 3.46144 -6.39835
thorax -2.95515 1.67571 -8.74074
lowerneck 2.08063 -5.62828 -0.402988
upperneck 12.4929 -7.94646 4.0574
head 3.92169 -3.78321 1.18746
rclavicle -1.6114e-014 3.49861e-014
rhumerus 63.0484 -10.7036 -78.9976
rradius 12.178
rwrist 41.6053
rhand 6.95629 5.13217
rfingers 7.12502
rthumb 32.2341 -22.0265
lclavicle -1.6114e-014 3.49861e-014
lhumerus -36.3492 42.7959 58.7976
lradius 16.562
lwrist -42.673
lhand -10.6894 -5.88439
lfingers 7.12502
lthumb 15.3197 23.5282
rfemur 6.07535 15.3391 20.8292
rtibia 18.5642
rfoot -26.7312 -24.8981
rtoes -10.0239
lfemur -1.17172 -17.8665 -19.6466
ltibia 27.8355
lfoot -20.9186 4.85715
ltoes -15.7526
117
root 2.63192 17.6332 17.5055 -5.39991 14.4777 0.691982
lowerback 7.31556 2.56693 2.9452
upperback 0.495596 3.47219 -6.39564
thorax -3.01096 1.67835 -8.74723
lowerneck 2.09774 -5.63124 -0.447926
upperneck 12.6381 -7.95674 4.07358
head 3.9741 -3.78684 1.19942
rclavicle -4.90128e-014 3.49861e-014
rhumerus 62.8845 -10.4699 -78.4606
rradius 12.3489
rwrist 41.3342
rhand 7.15359 5.06061
rfingers 7.12502
rthumb 32.4219 -22.0598
lclavicle -4.90128e-014 3.49861e-014
lhumerus -36.3698 42.6396 58.8193
lradius 16.4963
lwrist -42.5107
lhand -10.7537 -5.86199
lfingers 7.12502
lthumb 15.2578 23.5553
rfemur 6.03504 15.2947 20.8287
rtibia 18.5691
rfoot -26.684 -24.8881
rtoes -10.0688
lfemur -1.22459 -17.8596 -19.6113
ltibia 27.8545
lfoot -20.9065 4.82563
ltoes -15.7531
118
root 2.6299 17.6335 17.502 -5.39633 14.4954 0.679209
lowerback 7.37796 2.57342 2.95665
upperback 0.480644 3.48131 -6.38831
thorax -3.05978 1.68058 -8.7518
lowerneck 2.09085 -5.63602 -0.479958
upperneck 12.7886 -7.96675 4.05706
head 4.0306 -3.79062 1.19757
rclavicle -9.08197e-015 2.06736e-014
rhumerus 62.5816 -10.0782 -77.4876
rradius 12.6719
rwrist 40.6132
rhand 7.40725 4.94239
rfingers 7.12502
rthumb 32.6633 -22.1283
lclavicle -9.08197e-015 2.06736e-014
lhumerus -36.4798 42.7058 58.7063
lradius 16.43
lwrist -42.6056
lhand -10.7703 -5.83283
lfingers 7.12502
lthumb 15.2417 23.5857
rfemur 6.01018 15.2786 20.8351
rtibia 18.5757
rfoot -26.6898 -24.8765
rtoes -10.0209
lfemur -1.26451 -17.8511 -19.5762
ltibia 27.8699
lfoot -20.8949 4.77942
ltoes -15.7454
119
root 2.62817 17.6335 17.4987 -5.38747 14.5002 0.680235
lowerback 7.42682 2.58407 2.96643
upperback 0.464351 3.49557 -6.39329
thorax -3.10086 1.68567 -8.76843
lowerneck 2.12467 -5.63186 -0.511212
upperneck 12.9218 -7.96698 4.07511
head 4.07489 -3.78906 1.2088
rclavicle 9.18882e-014 -7.4743e-014
rhumerus 62.1035 -9.45041 -75.8855
rradius 13.1186
rwrist 39.2283
rhand 7.65732 4.75593
rfingers 7.12502
rthumb 32.9011 -22.2651
lclavicle 9.18882e-014 -7.4743e-014
lhumerus -36.5661 42.6665 58.6273
lradius 16.3513
lwrist -42.624
lhand -10.8361 -5.84682
lfingers 7.12502
lthumb 15.1784 23.5765
rfemur 5.98045 15.2606 20.8257
rtibia 18.5822
rfoot -26.6838 -24.8633
rtoes -10.0693
lfemur -1.29697 -17.858 -19.5675
ltibia 27.8828
lfoot -20.8866 4.77872
ltoes -15.7452
120
root 2.62654 17.634 17.4957 -5.37193 14.5083 0.680367
lowerback 7.4716 2.5915 2.97536
upperback 0.450859 3.50551 -6.40071
thorax -3.13737 1.68883 -8.78649
lowerneck 2.11658 -5.63187 -0.541739
upperneck 13.0868 -7.97458 4.08974
head 4.13883 -3.79009 1.21702
rclavicle 4.34841e-014 -6.83819e-014
rhumerus 61.7363 -8.93492 -74.5879
rradius 13.5115
rwrist 38.1627
rhand 7.90283 4.65169
rfingers 7.12502
rthumb 33.1346 -22.32
lclavicle 4.34841e-014 -6.83819e-014
lhumerus -36.6286 42.6198 58.561
lradius 16.2941
lwrist -42.6192
lhand -10.863 -5.81288
lfingers 7.12502
lthumb 15.1524 23.6124
rfemur 5.94482 15.2461 20.8139
rtibia 18.5891
rfoot -26.6838 -24.8435
rtoes -10.0241
lfemur -1.34041 -17.8316 -19.5457
ltibia 27.8918
lfoot -20.872 4.74143
ltoes -15.7462
